<!DOCTYPE svg PUBLIC "-//W3C//DTD SVG 1.1//EN" "http://www.w3.org/Graphics/SVG/1.1/DTD/svg11.dtd">
<!-- Uploaded to: SVG Repo, www.svgrepo.com, Transformed by: SVG Repo Mixer Tools -->
<svg fill="#ffffff" height="800px" width="800px" version="1.1" id="Layer_1" xmlns="http://www.w3.org/2000/svg" xmlns:xlink="http://www.w3.org/1999/xlink" viewBox="0 0 512 512" xml:space="preserve" stroke="#ffffff">
<g id="SVGRepo_bgCarrier" stroke-width="0"/>
<g id="SVGRepo_tracerCarrier" stroke-linecap="round" stroke-linejoin="round"/>
<g id="SVGRepo_iconCarrier"> <g> <g> <path d="M478.609,33.391h-44.522c-49.178,0-89.044,39.866-89.044,89.044v356.174c55.324,0,100.174-44.848,100.174-100.174V200.348 c36.884,0,66.783-29.9,66.783-66.783V33.391H478.609z M428.522,139.13h-0.004c-12.271,0-22.256-9.986-22.256-22.261 c0.004-12.277,9.991-22.261,22.261-22.261c12.275,0,22.261,9.986,22.261,22.261S440.796,139.13,428.522,139.13z"/> </g> </g> <g> <g> <path d="M33.391,133.565C14.95,133.565,0,148.516,0,166.957c0,18.441,14.95,33.391,33.391,33.391h278.261v-66.783H33.391z"/> </g> </g> <g> <g> <path d="M33.391,233.739v33.391c0,86.061,69.766,155.826,155.826,155.826c49.664,0,93.9-23.236,122.435-59.429V233.739H33.391z"/> </g> </g> </g>
</svg>